<svg width="21" height="20" viewBox="0 0 21 20" fill="none" xmlns="http://www.w3.org/2000/svg">
<g clip-path="url(#clip0_1300_17477)">
<path d="M17.3401 18.5371H7.77765C6.81515 18.5371 6.02765 17.7496 6.02765 16.7871V7.22461C6.02765 6.26211 6.81515 5.47461 7.77765 5.47461H17.3401C18.3026 5.47461 19.0901 6.26211 19.0901 7.22461V16.7871C19.0901 17.7496 18.3026 18.5371 17.3401 18.5371Z" fill="white"/>
<path d="M12.9026 1.25H3.34015C2.37765 1.25 1.59015 2.0375 1.59015 3V12.55C1.59015 13.5125 2.37765 14.3 3.34015 14.3H4.86515V7.225C4.86515 5.6125 6.17765 4.3125 7.77765 4.3125H14.6526V3C14.6526 2.0375 13.8651 1.25 12.9026 1.25Z" fill="white"/>
</g>
<defs>
<clipPath id="clip0_1300_17477">
<rect width="17.5" height="17.2875" fill="white" transform="translate(1.59015 1.25)"/>
</clipPath>
</defs>
</svg>
